<?xml version="1.0" encoding="UTF-8"?>
<svg id="Layer_1" data-name="Layer 1" xmlns="http://www.w3.org/2000/svg" xmlns:xlink="http://www.w3.org/1999/xlink" viewBox="0 0 902.03 296.06">
  <defs>
    <style>
      .cls-1 {
        font-family: FONTSPRINGDEMO-RotundaHair-LightRegular, 'FONTSPRING DEMO - Rotunda Hair-Light';
        font-size: 130.6px;
        font-weight: 300;
      }

      .cls-1, .cls-2, .cls-3 {
        fill: #0b7bbe;
      }

      .cls-4 {
        stroke-width: .5px;
      }

      .cls-4, .cls-5 {
        fill: none;
        stroke: #0b7bbe;
        stroke-miterlimit: 10;
      }

      .cls-6 {
        letter-spacing: -.02em;
      }

      .cls-7 {
        letter-spacing: -.02em;
      }

      .cls-8 {
        letter-spacing: .05em;
      }

      .cls-2 {
        stroke-width: 0px;
      }

      .cls-5 {
        stroke-width: 13px;
      }

      .cls-3 {
        font-family: FONTSPRINGDEMO-RotundaExtBd-BlackRegular, 'FONTSPRING DEMO - Rotunda ExtBd-Black';
        font-size: 126.79px;
      }
    </style>
    <symbol id="New_Symbol" data-name="New Symbol" viewBox="0 0 902.03 296.06">
      <g>
        <text class="cls-3" transform="translate(113.25 192.95)"><tspan x="0" y="0">MEDIC</tspan><tspan class="cls-7" x="417.4" y="0">A</tspan></text>
        <path class="cls-4" d="m341.09,155.76c-.03.41-.3.76-.42,1.15-.13.42-.1.87-.06,1.31.18,2.04.38,4.15,1.41,5.92.35.61.81,1.19.94,1.88.07.37.05.75.08,1.12.07.7.36,1.36.64,2.01.31.7.62,1.41,1.06,2.03.22.32.48.61.76.88,1.51,1.47,3.69,2.22,5.79,1.98,1.09-.13,2.13-.5,3.15-.9,3.32-1.29,6.55-2.84,9.64-4.63,1.24-.72,2.3-1.84,3.13-3.01,2.02-2.85,2.5-6.73,1.21-9.98-.24-.6-.53-1.18-.63-1.81-.16-.98.15-2.03-.17-2.97-.28-.84-1-1.43-1.6-2.08s-1.42-1.63-1.21-2.49c-.86-.41-1.46-1.25-1.83-2.13s-.54-1.83-.79-2.76c-.15-.57-.35-1.16-.77-1.57s-1.14-.58-1.61-.22c-.18-.24.23-.46.42-.68.3-.34.08-.88-.15-1.27-.97-1.64-2-3.35-3.62-4.37.2-.11.4-.22.6-.33-.47-.67-.95-1.34-1.42-2.01-.11-.16-.22-.32-.25-.51-.03-.18.03-.36.03-.54,0-.43-.3-.8-.58-1.14-.48-.56-.96-1.13-1.44-1.69-1.05-1.23-2.11-2.48-3.38-3.48s-2.8-1.75-4.41-1.85c-1.78-.11-3.6.63-4.81,1.94-.08,1.02.75,1.95,1.73,2.22s2.07.32,2.89.93c-.76.48-.92,1.52-.91,2.42s.09,1.88-.43,2.62c-.58.82-1.77,1.11-2.18,2.03-.63,1.39.99,2.91.72,4.41-.18,1.01-1.19,1.73-1.34,2.74-.06.43,0,.96-.33,1.24-.16.13-.38.17-.58.24-.82.28-1.34,1.13-1.46,1.99s.07,1.73.26,2.57c.65,2.86,2.16,5.85,1.95,8.77Z"/>
        <path class="cls-2" d="m335.91,122.62c.31,1.13.79,2.23,1.46,3.19s2.08,2.01,3.28,1.1l-1.82-.23c1.06,1.25,2.57,2.13,4.18,2.43l-.66-2.51c-.95.75-.8,1.93-.74,2.99,0,.1,0,.19,0,.29,0,.23-.04.06.03-.06.06-.1.36-.31.14-.22-.19.08-.42.27-.56.41-.17.17-.51.49-.56.72-.05.07-.06.08,0,.03.15-.18.38-.16.67.04.39-.16.61-.11.66.15.04.15.05.11.02-.14.11-2.69-1.79-4.67-3.72-6.26-.52-.43-1.2-.59-1.82-.23-.57.33-.87,1.06-.69,1.69.8,2.83,1.96,5.56,3.43,8.1.41.7,1.35.94,2.05.54.54-.31.86-.76,1.05-1.35.33-1.05-.77-2.22-1.85-1.85-.53.18-1.02.26-1.57.13-.73-.17-1.71.22-1.85,1.05-.17.98-.15,1.94.2,2.89.28.76,1.02,1.28,1.85,1.05.73-.2,1.33-1.08,1.05-1.85-.15-.42-.27-.84-.2-1.29l-1.85,1.05c1.06.24,2.13.23,3.16-.13l-1.85-1.85.33-.45,2.05.54c-1.35-2.33-2.4-4.79-3.13-7.38l-2.51,1.46c.97.8,2.09,1.67,2.62,2.84.23.52.19,1,.24,1.62.09,1.01.62,1.97,1.64,2.3.83.26,1.69-.05,2.23-.7.15-.17.25-.38.4-.56-.03.04-.18.16,0,.01.34-.28.69-.47.93-.87.35-.57.43-1.23.38-1.89-.02-.25-.06-.49-.07-.74,0-.07,0-.14,0-.21,0-.12,0-.09-.01.07-.05.08-.28.35-.04.16.87-.68.38-2.31-.66-2.51-1.17-.22-2.09-.75-2.86-1.66-.39-.45-1.32-.61-1.82-.23.69-.52,1.02.35.7-.21-.15-.26-.32-.5-.46-.77-.26-.49-.43-.99-.57-1.52-.5-1.86-3.4-1.07-2.89.8h0Z"/>
        <path class="cls-2" d="m337.04,130.78c-.26.21-.44.58-.51.91-.04.16-.05.35-.07.52-.02.16,0,.08.03-.22.38-.48.46-.64.27-.48l.66-.39c-.1.04-.08.04.07,0,.13-.03.26-.03.39,0l.23.1c-.09-.06-.08-.04.03.04.22.18.03,0,0-.03.15.2.19.25.12.16-.02-.03-.04-.06-.06-.1-.03-.06-.1-.14-.11-.21.01.08.13.34.05.11-.02-.06-.04-.13-.06-.19-.05-.17,0-.29,0,.05,0,.2-.07.38-.19.54-.04.06-.39.33-.19.21.1-.05.09-.04-.04.02-.13.05-.15.06-.04.02.07-.02.15-.05.22-.07.32-.09.66-.16.99-.21.07-.01.16-.02.23-.03-.41.1-.15.02-.03,0,.15-.02.31-.04.46-.06.44-.05.88-.11,1.31-.18.75-.13,1.48-.37,2.16-.74s.97-1.38.54-2.05-1.32-.94-2.05-.54c-.08.04-.27.1-.32.17.22-.09.26-.11.11-.05-.06.02-.11.04-.17.06-.23.08-.46.14-.7.19s-.48.09-.72.13c-.16.02-.12.02.12-.02-.06,0-.12.02-.18.02-.09.01-.18.02-.28.03-1.1.14-2.48.2-3.39.9-.75.58-.96,1.49-.71,2.39.16.56.43,1.17.86,1.58.57.57,1.39.85,2.18.62.58-.17,1.01-.65,1.17-1.23.05-.19.06-.39.08-.58.02-.16,0-.08-.03.21-.06.18-.15.34-.27.48.61-.5.56-1.61,0-2.12-.65-.59-1.47-.54-2.12,0h0Z"/>
        <path class="cls-2" d="m336.98,120.62c.01,1.2.2,2.36.61,3.5.25.71,1.04,1.35,1.85,1.05.5-.19.89-.4,1.14-.9.04-.08.41-1.41.2-1.46l-.25.55c.22-.1.45-.2.67-.29.37-.15.74-.31,1.12-.44.72-.26,1.46-.5,2.22-.63,1.47-.25,2.88.05,4.23.65,1.06.47,2.83,1.13,3.52,2.13l2.05-2.05c-.56-.36-1.13-.71-1.69-1.07-1.42-.9-3.11,1.22-1.82,2.36,1.5,1.31,2.77,2.77,3.82,4.46.94,1.51,3.02.48,2.74-1.16-.44-2.56-1.32-5-2.57-7.28l-2.36,1.82c3.03,3.82,6.06,7.64,9.09,11.47.91,1.15,3.05-.1,2.51-1.46-1.13-2.84-2.34-5.65-3.64-8.42l-2.59,1.51c2.92,4.86,5.9,9.74,9.92,13.78,1.11,1.12,2.78-.05,2.51-1.46-.54-2.77-2.01-5.18-3.64-7.44-1.77-2.45-3.63-4.83-5.55-7.16-1.09-1.32-3.25.39-2.36,1.82.42.67.84,1.35,1.26,2.02l2.36-1.82c-1.39-1.57-3.07-2.82-4.98-3.69-1.46-.67-3.13,1.1-1.82,2.36,1.95,1.87,4.44,2.95,6.51,4.66,1.93,1.59,3.42,3.63,4.67,5.78s2.25,4.4,3.25,6.65c1.19,2.68,2.46,5.67,1.97,8.67l2.95.4c-.17-2.48-1.7-4.55-2.94-6.62s-2.63-4.26-4.09-6.29c-2.85-3.94-6.18-7.52-10.37-10.06-1.04-.63-2.7.44-2.2,1.69,1.98,4.96,6.39,8.22,9.32,12.56s5.03,9.6,5.9,14.96c.23,1.42,2.68,1.44,2.89,0,.17-1.2.35-2.4.52-3.59.22-1.51-1.29-2.44-2.51-1.46-1.37,1.1-1.31,3.2-1.53,4.79-.29,2.07-.59,4.14-.88,6.21-.26,1.85,2.42,2.73,2.89.8.6-2.43-.02-4.8-.52-7.19-.45-2.16-.74-4.47-1.72-6.47-.43-.87-1.11-1.5-1.66-2.28-.62-.89-.89-1.97-1.5-2.89-1.27-1.89-2.11-3.88-2.54-6.11l-2.51,1.46c1.27,1.47,2.38,3.05,3.36,4.73s3.38.21,2.59-1.51c-1.08-2.37-3.05-4.15-4.66-6.15-1.82-2.26-3.16-4.8-4.46-7.38-.87-1.72-3.46-.21-2.59,1.51,1.29,2.55,2.63,5.03,4.38,7.29,1.6,2.06,3.64,3.84,4.74,6.24l2.59-1.51c-1.11-1.9-2.39-3.67-3.83-5.34-1.06-1.23-2.77.12-2.51,1.46.39,2.03,1.12,4,2.17,5.78.52.88,1.11,1.63,1.5,2.57s.85,1.63,1.49,2.39c1.31,1.57,1.54,3.62,1.95,5.55.47,2.23,1.39,4.78.83,7.06l2.89.8c.25-1.75.5-3.51.75-5.26.11-.8.23-1.59.34-2.39.09-.62.05-1.62.56-2.03l-2.51-1.46c-.17,1.2-.35,2.4-.52,3.59h2.89c-.86-5.31-2.82-10.46-5.74-14.98-1.41-2.18-3.06-4.18-4.81-6.09s-3.67-3.95-4.67-6.44l-2.2,1.69c3.73,2.26,6.75,5.46,9.3,8.98,1.27,1.75,2.44,3.58,3.57,5.42.56.92,1.11,1.85,1.66,2.78.58.99,1.31,2.02,1.39,3.2.11,1.57,2.65,2.17,2.95.4.53-3.2-.26-6.19-1.48-9.15-1.1-2.64-2.28-5.28-3.65-7.79-1.29-2.34-2.83-4.6-4.79-6.43-2.21-2.07-5.07-3.23-7.25-5.31l-1.82,2.36c1.7.78,3.13,1.82,4.37,3.22,1.13,1.27,3.26-.38,2.36-1.82-.42-.67-.84-1.35-1.26-2.02l-2.36,1.82c1.75,2.14,3.46,4.31,5.08,6.55,1.49,2.06,2.84,4.19,3.34,6.72l2.51-1.46c-3.84-3.87-6.66-8.53-9.45-13.18-1.01-1.68-3.4-.21-2.59,1.51,1.19,2.53,2.31,5.1,3.34,7.7l2.51-1.46c-3.03-3.82-6.06-7.64-9.09-11.47-1.09-1.37-3.14.38-2.36,1.82,1.13,2.06,1.86,4.25,2.26,6.57l2.74-1.16c-1.18-1.9-2.6-3.6-4.28-5.07l-1.82,2.36c.56.36,1.13.71,1.69,1.07,1.23.78,2.9-.8,2.05-2.05-.97-1.42-2.5-2.17-4-2.92-1.68-.84-3.48-1.49-5.38-1.44s-3.83.73-5.63,1.49c-.67.29-1.39.53-1.79,1.19-.18.29-.25.64-.28.97-.02.17-.02.33,0,.5,0,.38.04.32.12-.17l.9-.69-.17.06,1.85,1.05c-.32-.9-.49-1.75-.5-2.7-.02-1.93-3.02-1.93-3,0h0Z"/>
        <path class="cls-2" d="m336.63,131.98c.42,1.35-.05,2.66-.45,3.97-.42,1.4-.81,2.83-.67,4.31s1.88,1.96,2.8.76c1.52-2,2.34-4.32,2.61-6.8l-2.56,1.06c.56.46.94,1.03.8,1.79s.2,1.7,1.05,1.85c-.09-1.13-.36-1.46-.79-.99-.14.11-.27.22-.4.35-.28.3-.54.71-.64,1.11-.03.11-.17.85-.08.98.76-.51.83-.68.2-.51-.19.02-.36.07-.53.16-1.64.62-2.33,2.28-2.09,3.93.21,1.44,2.07,1.25,2.74.36.14-.18.28-.37.42-.55l-2.59-1.51c-.34.49-.46.99-.47,1.58,0,1.23,1.7,2.08,2.56,1.06.35-.41.66-.83.9-1.31.63-1.26-.71-2.91-2.05-2.05-1.89,1.21-2.62,3.93-1.2,5.8.46.6,1.13.93,1.87.61.65-.27,1.11-1.06.87-1.77-.11-.31-.13-.44-.12-.78l-2.95.4c.52,2.56,1.15,5.09,1.88,7.59.54,1.85,3.44,1.06,2.89-.8-.74-2.5-1.36-5.03-1.88-7.59-.35-1.71-2.89-1.24-2.95.4-.02.54.05,1.06.23,1.57l2.74-1.16c-.4-.52-.51-1.28.12-1.69l-2.05-2.05c-.13.25-.25.49-.43.7l2.56,1.06.06-.07c.47-.67.12-1.66-.54-2.05-.76-.46-1.57-.11-2.05.54-.14.18-.28.37-.42.55l2.74.36c-.07-.46,1.36-.56,1.59-.71.43-.29.74-.74.87-1.24.06-.22.07-.45.08-.68,0-.1,0-.2,0-.29,0-.23-.01-.2-.07.08.55-.65,1.22-.98,1.38-1.92.18-1.06-.52-2.18-1.6-2.36l1.05,1.85c.33-1.76-.15-3.54-1.57-4.71-1.05-.86-2.41-.27-2.56,1.06-.21,1.95-1.02,3.73-2.2,5.29l2.8.76c-.3-3.14,2.01-5.87,1.01-9.07-.58-1.84-3.47-1.05-2.89.8h0Z"/>
        <path class="cls-2" d="m336.85,151.9c-.2,1.41-.19,2.73.07,4.13s2.59,1.41,2.89,0c.08-.38.13-.56.46-.77l-2.2-.9c.09.27.15.54.2.81.09.13.02.18-.23.15-.31.36-.73.36-.97.87-.44.92-.22,2.19-.19,3.17.06,2.16.21,4.33-.02,6.48s-1.13,4.12-1.02,6.28c.09,1.77.24,4.01,2.05,4.86.99.46,2.14.66,3.19.96s2.12.66,3.21.82c1.79.27,3.8-.36,4.4-2.25.56-1.77-.67-3.19-2.28-3.72-2.08-.69-4.37-1.02-6.51-1.5-1.92-.44-2.57,2.2-.8,2.89s3.53.97,5.37.93c1.23-.03,2.07-1.66,1.06-2.56-.75-.67-1.19-1.36-1.44-2.33l-2.74,1.16c.34.52.67,1.03,1.01,1.55l2.05-2.05c-1.01-.46-1.99-.66-3.08-.86-.76-.14-1.88-.31-2.13-1.18l-2.2,1.69,3.4,1.51c.8.35,1.53.18,2.05-.54s.37-1.59-.07-2.3c-.53-.86-.98-1.54-1.2-2.55l-2.51,1.46c.88.94,1.71,1.92,2.51,2.92s2.72.2,2.56-1.06c-.6-4.57-3.32-8.82-3.03-13.49.12-1.93-2.88-1.92-3,0-.3,4.78,2.42,8.87,3.03,13.49l2.56-1.06c-.8-1.01-1.64-1.98-2.51-2.92-1.08-1.16-2.8.07-2.51,1.46.15.7.38,1.37.7,2.01.14.29.31.56.49.84l.23.31c.26.48.31.27.14-.61l2.05-.54-3.4-1.51c-1.13-.5-2.59.33-2.2,1.69.36,1.25,1.21,2.16,2.38,2.71,1.34.63,2.87.51,4.2,1.12,1.25.57,2.94-.68,2.05-2.05-.34-.52-.67-1.03-1.01-1.55-.91-1.4-3.18-.53-2.74,1.16.37,1.43,1.11,2.67,2.21,3.65l1.06-2.56c-1.6.04-3.08-.24-4.58-.82l-.8,2.89c1.35.31,2.71.61,4.06.92.6.14,1.21.26,1.81.41.2.05.58.09.75.22.14.1.16-.09-.02-.01-1.05.49-3.02-.45-4.07-.73-.65-.18-1.52-.26-2.1-.58-.54-.3-.45-.39-.57-1.13-.42-2.69.72-5.21.93-7.88.1-1.31.09-2.62.05-3.93-.02-.7-.05-1.39-.07-2.09-.02-.65-.18-1.56.01-2.19l-1.05,1.05c2.3-.55,2.72-2.59,2.12-4.65-.26-.9-1.37-1.43-2.2-.9-.95.61-1.61,1.45-1.84,2.56h2.89c-.15-.83-.19-1.69-.07-2.54s-.2-1.6-1.05-1.85c-.7-.2-1.73.25-1.85,1.05h0Z"/>
        <path class="cls-2" d="m361.76,139.7c1.93,0,1.93-3,0-3s-1.93,3,0,3h0Z"/>
        <path class="cls-2" d="m361.68,139.87c1.93,0,1.93-3,0-3s-1.93,3,0,3h0Z"/>
        <path class="cls-2" d="m361.62,139.8c1.93,0,1.93-3,0-3s-1.93,3,0,3h0Z"/>
        <path class="cls-2" d="m358.35,134.37c1.93,0,1.93-3,0-3s-1.93,3,0,3h0Z"/>
        <path class="cls-2" d="m356.75,129.18c1.93,0,1.93-3,0-3s-1.93,3,0,3h0Z"/>
        <path class="cls-2" d="m343.5,126.83c1.93,0,1.93-3,0-3s-1.93,3,0,3h0Z"/>
        <path class="cls-2" d="m343.6,126.8c1.93,0,1.93-3,0-3s-1.93,3,0,3h0Z"/>
        <path class="cls-2" d="m343.57,126.74c1.93,0,1.93-3,0-3s-1.93,3,0,3h0Z"/>
        <path class="cls-2" d="m343.62,126.77c1.93,0,1.93-3,0-3s-1.93,3,0,3h0Z"/>
        <path class="cls-2" d="m342.46,126.93h.03c.17.12.36.18.56.19.2.04.4.04.6-.03.2-.05.37-.14.51-.27.16-.11.29-.25.39-.42l.15-.36c.07-.27.07-.53,0-.8l-.15-.36c-.13-.23-.31-.4-.54-.54h-.03c-.17-.12-.36-.18-.56-.19-.2-.04-.4-.04-.6.03-.2.05-.37.14-.51.27-.16.11-.29.25-.39.42l-.15.36c-.07.27-.07.53,0,.8l.15.36c.13.23.31.4.54.54h0Z"/>
        <path class="cls-2" d="m339.55,124.62c1.93,0,1.93-3,0-3s-1.93,3,0,3h0Z"/>
        <path class="cls-2" d="m351.19,122.1c1.93,0,1.93-3,0-3s-1.93,3,0,3h0Z"/>
        <text class="cls-1" transform="translate(623.27 193.18) scale(.98 1)"><tspan class="cls-8" x="0" y="0">L</tspan><tspan x="75.36" y="0">IN</tspan><tspan class="cls-6" x="207.13" y="0">K</tspan></text>
        <line class="cls-5" x1="88.38" y1="6.5" x2="177.33" y2="6.5"/>
        <line class="cls-5" x1="170.84" y1=".07" x2="170.84" y2="87.65"/>
        <line class="cls-5" x1="94.89" y1="6.5" x2="94.89" y2="115.48"/>
        <line class="cls-5" x1=".05" y1="109.11" x2="101.31" y2="109.11"/>
        <line class="cls-5" x1="6.5" y1="102.57" x2="6.5" y2="195.12"/>
        <line class="cls-5" x1=".05" y1="189.66" x2="101.31" y2="189.66"/>
        <line class="cls-5" x1="94.89" y1="183.28" x2="94.89" y2="292.26"/>
        <line class="cls-5" x1="88.32" y1="289.5" x2="175.21" y2="289.5"/>
        <line class="cls-5" x1="170.84" y1="206.65" x2="170.84" y2="296.06"/>
      </g>
    </symbol>
  </defs>
  <use width="902.03" height="296.06" xlink:href="#New_Symbol"/>
</svg>